<svg xmlns="http://www.w3.org/2000/svg" width="48" height="48" viewBox="0 0 24 24" fill="none"><path d="M8.486 4.531c.213-.558.505-1.072.94-1.488 1.736-1.693 4.607-1.267 5.785.859.886 1.613 1.825 3.19 2.738 4.784 1.524 2.65 3.066 5.299 4.572 7.957 1.267 2.224-.107 5.032-2.623 5.413-1.541.23-2.986-.478-3.783-1.86-1.338-2.33-2.685-4.66-4.023-6.982-.026-.053-.062-.098-.097-.142-.142-.115-.204-.283-.292-.434-.594-1.045-1.205-2.082-1.799-3.119-.381-.673-.78-1.338-1.16-2.01a3.669 3.669 0 0 1-.488-1.95c.027-.355.07-.709.23-1.028Z" fill="#3C8BD9"/><path d="M8.487 4.531c-.08.319-.151.638-.169.975-.026.744.16 1.435.532 2.082a988.82 988.82 0 0 1 2.915 5.041c.088.15.16.301.248.443-.532.922-1.063 1.834-1.604 2.756-.744 1.284-1.488 2.578-2.241 3.863-.036 0-.045-.018-.054-.045-.008-.07.018-.133.036-.204.363-1.329.062-2.507-.85-3.517-.559-.611-1.268-.957-2.083-1.072-1.063-.15-2.002.124-2.844.789-.15.115-.248.283-.425.372-.036 0-.053-.018-.062-.045.425-.735.842-1.47 1.267-2.206 1.754-3.048 3.508-6.096 5.272-9.135.017-.035.044-.062.062-.097Z" fill="#FABC04"/><path d="M1.921 15.996c.169-.15.328-.31.505-.452 2.153-1.701 5.387-.47 5.857 2.224a3.894 3.894 0 0 1-.142 1.887.924.924 0 0 1-.035.15c-.08.143-.151.293-.24.435-.788 1.302-1.949 1.95-3.473 1.852-1.745-.124-3.119-1.436-3.358-3.172a3.545 3.545 0 0 1 .488-2.357c.088-.16.194-.301.292-.46.044-.036.027-.107.106-.107Z" fill="#34A852"/><path d="M1.921 15.996c-.035.036-.035.097-.097.106-.009-.062.026-.097.062-.141l.035.035Z" fill="#FABC04"/><path d="M8.106 19.806c-.036-.062 0-.106.035-.15l.036.035-.071.115Z" fill="#E1C025"/></svg>