<svg xmlns="http://www.w3.org/2000/svg" width="48" height="48"><path style="stroke:none;fill-rule:nonzero;fill:#f9ab00;fill-opacity:1" d="M33 5.727v36C33 45.754 35.781 48 38.727 48c2.726 0 5.726-1.91 5.726-6.273V6c0-3.691-2.726-6-5.726-6S33 2.543 33 5.727Zm0 0"/><path style="stroke:none;fill-rule:nonzero;fill:#e37400;fill-opacity:1" d="M18 24v17.727C18 45.754 20.781 48 23.727 48c2.726 0 5.726-1.91 5.726-6.273V24.273c0-3.695-2.726-6-5.726-6S18 20.816 18 24Zm-3.547 18.273A5.725 5.725 0 0 1 8.727 48 5.725 5.725 0 0 1 3 42.273a5.725 5.725 0 0 1 5.727-5.726 5.725 5.725 0 0 1 5.726 5.726Zm0 0"/></svg>