<svg height="28" width="28" xmlns="http://www.w3.org/2000/svg" viewBox="0 0 511.999 511.999"><path d="M502.179 160.323c-18.871-46.8-50.895-86.702-92.613-115.396C366.833 15.536 316.731 0 264.68 0 196.299 0 132.012 26.629 83.66 74.98 35.308 123.331 8.68 187.619 8.68 255.999c0 68.379 26.628 132.667 74.98 181.019 48.352 48.35 112.639 74.98 181.019 74.98 28.524 0 56.567-4.675 83.35-13.893a15.713 15.713 0 0 0 8.425-22.83 50.047 50.047 0 0 1-6.907-25.384c0-18.36 10.026-35.238 26.165-44.049a15.709 15.709 0 0 0 3.686-24.795c-14.732-15.014-22.846-34.856-22.846-55.87 0-44.003 35.799-79.802 79.801-79.802a79.342 79.342 0 0 1 29.992 5.849 15.658 15.658 0 0 0 6.286 1.15c8.514-.189 15.359-7.148 15.359-15.707a15.64 15.64 0 0 0-2.263-8.128 39.41 39.41 0 0 1-4.476-18.249c0-12.514 5.752-24.003 15.781-31.526a15.702 15.702 0 0 0 5.147-18.441zM143.373 286.06c-28.392 0-51.491-23.099-51.491-51.491 0-28.391 23.099-51.49 51.491-51.49s51.491 23.099 51.491 51.49c0 28.393-23.098 51.491-51.491 51.491zm91.47 145.153c-28.392 0-51.49-23.098-51.49-51.489 0-28.392 23.098-51.491 51.49-51.491 28.391 0 51.49 23.099 51.49 51.491.001 28.391-23.098 51.489-51.49 51.489zm21.156-264.943c-28.392 0-51.491-23.099-51.491-51.491s23.099-51.491 51.491-51.491c28.391 0 51.49 23.099 51.49 51.491s-23.099 51.491-51.49 51.491z"/></svg>