<svg xmlns="http://www.w3.org/2000/svg" width="24" height="24" fill="none"><path d="m2.202 20.538.079.222a5.238 5.238 0 0 1-.079-.222Zm3.116-5.037c.138-1.194.608-1.863 1.492-2.549 1.266-.928 2.847-.403 2.847-.403V9.433a6.52 6.52 0 0 1 1.15.072v4.009s-1.581-.525-2.847.404c-.884.685-1.355 1.354-1.492 2.548-.005.649.112 1.496.649 2.23a5.228 5.228 0 0 1-.406-.243c-1.183-.83-1.399-2.073-1.393-2.952ZM17.336 3.673c-.87-.996-1.2-2.001-1.32-2.707h1.096s-.218 1.851 1.374 3.672l.022.025a6.374 6.374 0 0 1-1.172-.99Zm5.277 2.823v3.928s-1.398-.057-2.432-.331c-1.445-.384-2.373-.973-2.373-.973s-.642-.42-.693-.45v8.113c0 .452-.119 1.58-.48 2.52-.472 1.232-1.2 2.04-1.335 2.205 0 0-.885 1.092-2.448 1.827-1.408.664-2.645.647-3.015.664 0 0-2.137.088-4.06-1.216a8.145 8.145 0 0 1-1.16-.973l.01.007c1.923 1.305 4.06 1.216 4.06 1.216.37-.017 1.607 0 3.015-.663 1.561-.736 2.448-1.828 2.448-1.828.133-.165.864-.973 1.334-2.204.36-.94.48-2.07.48-2.52V7.704c.052.03.693.45.693.45s.929.59 2.373.973c1.035.275 2.433.332 2.433.332V6.38c.478.112.886.142 1.15.115Z" fill="#EE1D52"/><path d="M21.463 6.381V9.46s-1.397-.057-2.432-.332c-1.445-.384-2.373-.973-2.373-.973s-.641-.42-.693-.45v8.114c0 .452-.119 1.58-.48 2.52-.472 1.232-1.2 2.04-1.334 2.205 0 0-.886 1.092-2.449 1.828-1.408.663-2.644.646-3.014.663 0 0-2.137.089-4.062-1.216l-.01-.007a7.558 7.558 0 0 1-.572-.649c-.614-.781-.99-1.705-1.085-1.968v-.003c-.152-.458-.472-1.558-.428-2.623.077-1.88.711-3.034.879-3.323a7.82 7.82 0 0 1 1.705-2.083 7.124 7.124 0 0 1 2.027-1.2 6.798 6.798 0 0 1 2.515-.529v3.116s-1.58-.523-2.846.403c-.885.686-1.355 1.354-1.493 2.549-.006.879.21 2.123 1.392 2.952a5.3 5.3 0 0 0 .406.243c.207.28.458.524.745.723 1.155.762 2.122.816 3.36.32.825-.331 1.446-1.078 1.734-1.905.181-.516.179-1.036.179-1.574V.966h2.88c.12.706.449 1.711 1.32 2.707.349.376.742.708 1.171.99.127.137.775.813 1.607 1.228.43.215.884.38 1.351.49Z" fill="#000"/><path d="M1.813 18.237v.003l.07.202c-.007-.024-.034-.095-.07-.205Z" fill="#69C9D0"/><path d="M7.142 9.962a7.123 7.123 0 0 0-2.027 1.2A7.818 7.818 0 0 0 3.41 13.25c-.167.288-.801 1.442-.878 3.322-.044 1.065.276 2.165.428 2.623v.003c.096.261.47 1.185 1.085 1.968.178.227.37.444.572.65A7.997 7.997 0 0 1 2.895 20.2c-.609-.775-.984-1.689-1.082-1.959v-.008c-.153-.457-.473-1.558-.429-2.624.078-1.88.711-3.033.879-3.322a7.808 7.808 0 0 1 1.705-2.088 7.11 7.11 0 0 1 2.027-1.2c.46-.191.939-.332 1.43-.42a7.105 7.105 0 0 1 2.235-.034v.888a6.798 6.798 0 0 0-2.518.529Z" fill="#69C9D0"/><path d="M16.017.966h-2.88V16.26c0 .537 0 1.056-.18 1.574-.29.826-.909 1.573-1.734 1.904-1.238.498-2.205.442-3.36-.32a3.163 3.163 0 0 1-.746-.72c.984.524 1.864.515 2.955.077.824-.331 1.444-1.078 1.734-1.905.181-.516.179-1.036.179-1.573V0h3.977s-.045.38.055.966Zm5.446 4.564v.851a6.27 6.27 0 0 1-1.349-.49c-.832-.415-1.48-1.091-1.606-1.228.147.096.3.184.457.263 1.011.505 2.007.656 2.498.604Z" fill="#69C9D0"/></svg>