<svg xmlns="http://www.w3.org/2000/svg" width="48" height="48" viewBox="0 0 24 24" fill="none"><path d="M22 6.07c-.736.34-1.527.57-2.357.673a4.26 4.26 0 0 0 1.805-2.364 8.024 8.024 0 0 1-2.606 1.037 4.025 4.025 0 0 0-2.995-1.35c-2.266 0-4.104 1.914-4.104 4.273 0 .335.037.66.107.973-3.41-.178-6.434-1.878-8.458-4.463a4.387 4.387 0 0 0-.555 2.148c0 1.482.724 2.79 1.825 3.555a3.965 3.965 0 0 1-1.858-.534v.054c0 2.07 1.414 3.796 3.29 4.189a3.958 3.958 0 0 1-1.852.073c.522 1.697 2.037 2.932 3.833 2.967A8.03 8.03 0 0 1 2 19.07a11.284 11.284 0 0 0 6.29 1.92c7.547 0 11.674-6.51 11.674-12.156 0-.185-.004-.37-.011-.552A8.537 8.537 0 0 0 22 6.07Z" fill="#55ACEE"/></svg>