<svg xmlns="http://www.w3.org/2000/svg" width="48" height="41" viewBox="0 0 47 41"><path style="stroke:none;fill-rule:nonzero;fill:#1ab7ea;fill-opacity:1" d="M46.973 9.484c-.211 4.614-3.407 10.934-9.582 18.953C31 36.813 25.594 41 21.17 41c-2.737 0-5.054-2.555-6.948-7.664l-3.79-14.055c-1.406-5.113-2.917-7.668-4.53-7.668-.352 0-1.579.746-3.688 2.235l-2.21-2.871c2.3-2.043 4.578-4.102 6.848-6.176C9.942 2.1 12.254.684 13.8.543c3.652-.356 5.898 2.164 6.738 7.559.914 5.82 1.547 9.441 1.898 10.859 1.051 4.824 2.211 7.238 3.473 7.238.985 0 2.457-1.562 4.422-4.683 1.969-3.125 3.02-5.5 3.16-7.133.281-2.7-.773-4.047-3.16-4.047-1.121 0-2.281.246-3.473.742C29.176 3.484 33.598-.207 40.13.008c4.844.14 7.121 3.3 6.844 9.476Zm0 0"/></svg>